<?xml version="1.0" encoding="UTF-8"?>
<svg version="1.1" xmlns="http://www.w3.org/2000/svg" width="128" height="128">
<path d="M0 0 C5.4596322 3.96135476 10.74890532 8.8401534 12.87890625 15.36328125 C13.39623371 20.77532236 12.78716776 26.02724486 11.87890625 31.36328125 C13.67328125 31.08484375 13.67328125 31.08484375 15.50390625 30.80078125 C19.16174332 30.33216155 22.25752791 30.54847112 25.87890625 31.36328125 C25.87890625 32.02328125 25.87890625 32.68328125 25.87890625 33.36328125 C27.19890625 34.02328125 28.51890625 34.68328125 29.87890625 35.36328125 C29.87890625 36.02328125 29.87890625 36.68328125 29.87890625 37.36328125 C30.86890625 37.36328125 31.85890625 37.36328125 32.87890625 37.36328125 C38.27894215 47.76498974 42.17801343 57.89999171 45.046875 69.23828125 C45.73375308 72.24133653 45.73375308 72.24133653 46.87890625 74.36328125 C46.54890625 75.02328125 46.21890625 75.68328125 45.87890625 76.36328125 C46.53890625 76.36328125 47.19890625 76.36328125 47.87890625 76.36328125 C48.556437 79.71534663 49.21894145 83.070217 49.87890625 86.42578125 C50.0696875 87.36873047 50.26046875 88.31167969 50.45703125 89.28320312 C52.13638082 97.88986965 53.11202736 106.31615992 48.87890625 114.36328125 C46.42897999 116.44389803 44.02887735 117.70426618 40.87890625 118.36328125 C38.625 117.9453125 38.625 117.9453125 36.87890625 117.36328125 C36.54890625 118.02328125 36.21890625 118.68328125 35.87890625 119.36328125 C23.02281823 119.47899124 10.16685351 119.5679034 -2.68964863 119.62234211 C-8.65908984 119.64846643 -14.62817554 119.68391691 -20.59741211 119.74047852 C-26.35512486 119.7946961 -32.11249508 119.82468041 -37.87044334 119.83766747 C-40.07018619 119.84692572 -42.2699097 119.86500445 -44.46950722 119.89193153 C-47.54429667 119.92808486 -50.61766012 119.93323226 -53.69262695 119.9309082 C-54.60756424 119.94888458 -55.52250153 119.96686096 -56.46516418 119.98538208 C-58.79245217 119.96627359 -60.86017018 119.91469423 -63.12109375 119.36328125 C-66.69112292 115.19499129 -67.00447361 110.68295357 -67.12109375 105.36328125 C-66.90121689 103.41580049 -66.68026699 101.46718368 -66.375 99.53125 C-66.07105408 96.93601946 -66.08901984 94.41302295 -66.12109375 91.80078125 C-66.16277084 87.51994921 -65.9432166 83.56524248 -65.12109375 79.36328125 C-64.62609375 78.86828125 -64.62609375 78.86828125 -64.12109375 78.36328125 C-63.91059134 76.36350838 -63.70125558 74.36360907 -63.49609375 72.36328125 C-62.34593553 63.16201552 -60.8535327 53.89457028 -57.12109375 45.36328125 C-56.46109375 45.36328125 -55.80109375 45.36328125 -55.12109375 45.36328125 C-54.81171875 43.97109375 -54.81171875 43.97109375 -54.49609375 42.55078125 C-53.12109375 39.36328125 -53.12109375 39.36328125 -50.62109375 37.55078125 C-46.13801678 36.02973728 -41.82760707 35.63302213 -37.12109375 35.36328125 C-37.48203125 34.72261719 -37.84296875 34.08195312 -38.21484375 33.421875 C-43.19183945 24.14530802 -43.19183945 24.14530802 -42.12109375 18.36328125 C-41.01924236 16.2224217 -39.78591993 14.26766723 -38.42578125 12.28125 C-36.24798116 9.07975347 -34.6546355 5.59709654 -33.12109375 2.05078125 C-32.12109375 0.36328125 -32.12109375 0.36328125 -29.12109375 -0.63671875 C-29.12109375 0.02328125 -29.12109375 0.68328125 -29.12109375 1.36328125 C-28.46109375 1.36328125 -27.80109375 1.36328125 -27.12109375 1.36328125 C-27.12109375 0.70328125 -27.12109375 0.04328125 -27.12109375 -0.63671875 C-18.30058512 -4.57921882 -8.56688016 -4.918355 0 0 Z " fill="#2C2847" transform="translate(73.12109375,8.63671875)"/>
<path d="M0 0 C1.5 1.25 1.5 1.25 3 3 C3 4.32 3 5.64 3 7 C3.5775 6.67 4.155 6.34 4.75 6 C7 5 7 5 11 5 C10.1875 7.9375 10.1875 7.9375 9 11 C8.01 11.33 7.02 11.66 6 12 C6.185625 12.5775 6.37125 13.155 6.5625 13.75 C7.04394633 16.22600969 6.63948099 17.60194629 6 20 C6.495 20.99 6.495 20.99 7 22 C8.32 22 9.64 22 11 22 C12.8125 23.25 12.8125 23.25 14 25 C13.6875 27.1875 13.6875 27.1875 13 29 C14.485 29.495 14.485 29.495 16 30 C16.495 32.475 16.495 32.475 17 35 C17.59167969 35.02578125 18.18335937 35.0515625 18.79296875 35.078125 C24.04981899 35.45545193 27.17748357 36.05802993 31 40 C33.55690506 45.11381012 31.83751549 51.55874326 30.18359375 56.75 C28.4615309 60.02362444 26.34916763 61.12473786 23.03515625 62.57421875 C20.69192052 63.06445425 19.25005033 62.75001678 17 62 C16.505 62.99 16.505 62.99 16 64 C3.14391198 64.11570999 -9.71205274 64.20462215 -22.56855488 64.25906086 C-28.53799609 64.28518518 -34.50708179 64.32063566 -40.47631836 64.37719727 C-46.23403111 64.43141485 -51.99140133 64.46139916 -57.74934959 64.47438622 C-59.94909244 64.48364447 -62.14881595 64.5017232 -64.34841347 64.52865028 C-67.42320292 64.56480361 -70.49656637 64.56995101 -73.5715332 64.56762695 C-74.48647049 64.58560333 -75.40140778 64.60357971 -76.34407043 64.62210083 C-78.67131091 64.60299273 -80.73908761 64.55124299 -83 64 C-86.57499668 59.82973238 -86.86291968 55.31871639 -87 50 C-86.63477214 45.61726567 -85.81910716 42.00203574 -84 38 C-82.37585622 37.80522261 -80.75063577 37.61940542 -79.125 37.4375 C-77.76761719 37.28087891 -77.76761719 37.28087891 -76.3828125 37.12109375 C-74 37 -74 37 -72 38 C-72 37.01 -72 36.02 -72 35 C-73.32 34.34 -74.64 33.68 -76 33 C-74.515 32.505 -74.515 32.505 -73 32 C-70.3125 33.4375 -70.3125 33.4375 -68 35 C-67.7525 34.4225 -67.505 33.845 -67.25 33.25 C-65.83316683 30.6997003 -64.12372463 28.98214299 -62 27 C-57.05 28.98 -57.05 28.98 -52 31 C-52.66 32.32 -53.32 33.64 -54 35 C-55.485 35.495 -55.485 35.495 -57 36 C-56.67 36.66 -56.34 37.32 -56 38 C-53.525 37.505 -53.525 37.505 -51 37 C-50.34 37.99 -49.68 38.98 -49 40 C-46.08482708 38.92598892 -44.22189824 38.22189824 -42 36 C-40.1875 35.0625 -40.1875 35.0625 -38 35 C-35.40464286 37.21554877 -33.39253877 39.41119184 -31.5 42.25 C-30.10790793 44.27117122 -30.10790793 44.27117122 -27.5 44.3125 C-26.675 44.539375 -25.85 44.76625 -25 45 C-23.1875 48.5625 -23.1875 48.5625 -22 52 C-20.35 51.67 -18.7 51.34 -17 51 C-15.82221781 46.54125314 -14.86882072 42.18660444 -14.1875 37.625 C-13.18963389 31.82439616 -10.89066208 27.0862413 -8 22 C-5.36 22 -2.72 22 0 22 C0.99 23.98 0.99 23.98 2 26 C2.66 26 3.32 26 4 26 C3.505 25.1028125 3.505 25.1028125 3 24.1875 C2 22 2 22 2 19 C2.66 19 3.32 19 4 19 C3.71125 17.87980469 3.4225 16.75960937 3.125 15.60546875 C2.74981309 14.13286011 2.37482335 12.66020122 2 11.1875 C1.71382812 10.08051758 1.71382812 10.08051758 1.421875 8.95117188 C0.64737086 5.89464659 0 3.16626522 0 0 Z M16 27 C16.99 27.33 17.98 27.66 19 28 C18.01 28.66 17.02 29.32 16 30 C16 29.01 16 28.02 16 27 Z " fill="#1D1A2F" transform="translate(93,64)"/>
<path d="M0 0 C0.87527344 0.18304687 1.75054687 0.36609375 2.65234375 0.5546875 C5.0625 1.125 5.0625 1.125 8.0625 2.125 C8.0625 2.785 8.0625 3.445 8.0625 4.125 C14.96012579 5.68264007 14.96012579 5.68264007 22 5.9375 C25.0625 6.125 25.0625 6.125 26.9375 8.125 C29.83583209 15.85388558 30.67121921 26.63752011 27.875 34.4375 C27.276875 35.324375 26.67875 36.21125 26.0625 37.125 C25.44761719 38.07052734 25.44761719 38.07052734 24.8203125 39.03515625 C23.64408076 40.78558395 22.35954917 42.46211645 21.0625 44.125 C20.4025 44.125 19.7425 44.125 19.0625 44.125 C18.8975 45.383125 18.7325 46.64125 18.5625 47.9375 C18.42328125 48.99904297 18.42328125 48.99904297 18.28125 50.08203125 C18.009267 52.27971706 18.009267 52.27971706 18.0625 55.125 C18.825625 55.145625 19.58875 55.16625 20.375 55.1875 C23.0625 56.125 23.0625 56.125 24.875 59.375 C25.90169739 62.61720227 26.36611001 64.78528985 26.0625 68.125 C25.4025 68.125 24.7425 68.125 24.0625 68.125 C24.80729614 68.73879517 24.80729614 68.73879517 25.56713867 69.36499023 C27.0625 71.125 27.0625 71.125 27.2512207 73.08618164 C27.12106567 74.17467407 27.12106567 74.17467407 26.98828125 75.28515625 C26.89740234 76.07857422 26.80652344 76.87199219 26.71289062 77.68945312 C26.54563477 78.92598633 26.54563477 78.92598633 26.375 80.1875 C26.28283203 81.01572266 26.19066406 81.84394531 26.09570312 82.69726562 C25.34006841 88.84743159 25.34006841 88.84743159 23.0625 91.125 C20.5625 90.9375 20.5625 90.9375 18.0625 90.125 C16.0625 87.125 16.0625 87.125 16.0625 83.125 C15.340625 83.228125 14.61875 83.33125 13.875 83.4375 C9.82025376 82.98697264 8.67514845 81.19486192 6.0625 78.125 C5.155 77.196875 4.2475 76.26875 3.3125 75.3125 C-0.61874287 69.77414526 -0.04156812 61.68872508 0.0625 55.125 C0.3925 54.465 0.7225 53.805 1.0625 53.125 C1.53084787 49.72206736 1.65603903 46.51586652 1.0625 43.125 C-1.64012386 40.57304107 -1.64012386 40.57304107 -4.9375 39.125 C-8.24422167 36.55310537 -9.7908971 33.07959238 -10.9375 29.125 C-11.36345737 25.2005414 -11.35714918 21.319011 -11.3125 17.375 C-11.32990234 15.81458984 -11.32990234 15.81458984 -11.34765625 14.22265625 C-11.34378906 13.22621094 -11.33992188 12.22976562 -11.3359375 11.203125 C-11.33255371 10.29981445 -11.32916992 9.39650391 -11.32568359 8.46582031 C-10.8612377 5.66512396 -10.01011736 4.97186069 -7.9375 3.125 C-7.6075 2.135 -7.2775 1.145 -6.9375 0.125 C-4.25716992 -1.21516504 -2.90251998 -0.62227301 0 0 Z " fill="#B27373" transform="translate(51.9375,25.875)"/>
<path d="M0 0 C3.3 0.99 6.6 1.98 10 3 C10 4.32 10 5.64 10 7 C8.02 7.99 8.02 7.99 6 9 C6.33 9.66 6.66 10.32 7 11 C8.65 10.67 10.3 10.34 12 10 C12.66 10.99 13.32 11.98 14 13 C16.91517292 11.92598892 18.77810176 11.22189824 21 9 C22.8125 8.0625 22.8125 8.0625 25 8 C28.16368164 10.63640136 30.4404735 13.17207132 32 17 C30.35 17.33 28.7 17.66 27 18 C26.34 19.98 25.68 21.96 25 24 C23.35 24 21.7 24 20 24 C20 24.66 20 25.32 20 26 C18.125 28.125 18.125 28.125 16 30 C15.34 30 14.68 30 14 30 C14 30.66 14 31.32 14 32 C11.09399739 33.25664978 9.20395416 34 6 34 C6 34.66 6 35.32 6 36 C1.87310801 38.06344599 -3.40153457 37.31728384 -7.9375 37.375 C-9.60329102 37.43107422 -9.60329102 37.43107422 -11.30273438 37.48828125 C-12.36685547 37.49988281 -13.43097656 37.51148438 -14.52734375 37.5234375 C-15.99288696 37.5531665 -15.99288696 37.5531665 -17.48803711 37.58349609 C-20 37 -20 37 -21.80786133 34.60546875 C-24.94102957 27.75779897 -24.4659019 20.05278761 -21.9375 13.0625 C-21.628125 12.381875 -21.31875 11.70125 -21 11 C-19.37585622 10.80522261 -17.75063577 10.61940542 -16.125 10.4375 C-15.22007813 10.33308594 -14.31515625 10.22867188 -13.3828125 10.12109375 C-11 10 -11 10 -9 11 C-9 10.01 -9 9.02 -9 8 C-10.32 7.34 -11.64 6.68 -13 6 C-12.01 5.67 -11.02 5.34 -10 5 C-7.3125 6.4375 -7.3125 6.4375 -5 8 C-4.731875 7.4225 -4.46375 6.845 -4.1875 6.25 C-3 4 -3 4 0 0 Z " fill="#211E37" transform="translate(30,91)"/>
<path d="M0 0 C4.68705285 3.42290996 8.66986133 7.55557325 11.8828125 12.375 C11.8828125 13.695 11.8828125 15.015 11.8828125 16.375 C10.2328125 17.035 8.5828125 17.695 6.8828125 18.375 C7.5428125 20.355 8.2028125 22.335 8.8828125 24.375 C8.2228125 24.375 7.5628125 24.375 6.8828125 24.375 C6.5528125 25.035 6.2228125 25.695 5.8828125 26.375 C5.2228125 24.725 4.5628125 23.075 3.8828125 21.375 C2.7484375 21.931875 1.6140625 22.48875 0.4453125 23.0625 C-4.12966618 24.8302914 -6.99327797 23.91278135 -11.4296875 22.13671875 C-11.9865625 21.88535156 -12.5434375 21.63398438 -13.1171875 21.375 C-13.1171875 20.715 -13.1171875 20.055 -13.1171875 19.375 C-15.24189925 19.0398342 -17.36696655 18.70692171 -19.4921875 18.375 C-20.67554687 18.189375 -21.85890625 18.00375 -23.078125 17.8125 C-25.93538758 17.32750335 -25.93538758 17.32750335 -28.1171875 17.375 C-28.1171875 18.035 -28.1171875 18.695 -28.1171875 19.375 C-28.76558594 19.75527344 -29.41398437 20.13554687 -30.08203125 20.52734375 C-32.48879848 22.31811789 -32.48879848 22.31811789 -32.62109375 25.87890625 C-32.65950839 27.23136637 -32.67840746 28.58449504 -32.6796875 29.9375 C-32.69639586 32.47478437 -32.83814207 34.84009252 -33.1171875 37.375 C-34.1071875 38.035 -35.0971875 38.695 -36.1171875 39.375 C-36.84684116 41.93782742 -36.84684116 41.93782742 -37.1171875 44.375 C-39.1171875 41.375 -39.1171875 41.375 -38.7421875 38.6875 C-38.5359375 37.924375 -38.3296875 37.16125 -38.1171875 36.375 C-37.4571875 36.375 -36.7971875 36.375 -36.1171875 36.375 C-36.64119141 35.56095703 -36.64119141 35.56095703 -37.17578125 34.73046875 C-37.63082031 34.01503906 -38.08585937 33.29960938 -38.5546875 32.5625 C-39.00714844 31.85480469 -39.45960937 31.14710937 -39.92578125 30.41796875 C-42.29646024 26.35283723 -42.57312706 23.01038554 -42.1171875 18.375 C-41.03659347 16.21381194 -39.78645146 14.28586714 -38.421875 12.29296875 C-36.24407491 9.09147222 -34.65072925 5.60881529 -33.1171875 2.0625 C-32.1171875 0.375 -32.1171875 0.375 -29.1171875 -0.625 C-29.1171875 0.035 -29.1171875 0.695 -29.1171875 1.375 C-28.4571875 1.375 -27.7971875 1.375 -27.1171875 1.375 C-27.1171875 0.715 -27.1171875 0.055 -27.1171875 -0.625 C-18.2850362 -4.57270399 -8.58804969 -4.88692367 0 0 Z " fill="#301F28" transform="translate(73.1171875,8.625)"/>
<path d="M0 0 C1.82144531 0.14501953 1.82144531 0.14501953 3.6796875 0.29296875 C6.83080444 0.76813718 9.21993523 1.56747224 12.125 2.8125 C15.97164472 3.05291529 19.37953681 2.69378546 23.125 1.8125 C26.85443753 6.54036963 26.47915147 10.8947532 26.3125 16.625 C26.29219727 17.95047852 26.29219727 17.95047852 26.27148438 19.30273438 C26.23629217 21.47292023 26.18248985 23.64279033 26.125 25.8125 C25.43792969 25.7403125 24.75085938 25.668125 24.04296875 25.59375 C23.14191406 25.5009375 22.24085937 25.408125 21.3125 25.3125 C19.97251953 25.17328125 19.97251953 25.17328125 18.60546875 25.03125 C16.04194901 24.76857599 16.04194901 24.76857599 13.125 24.8125 C13.625 23 13.625 23 15.125 20.8125 C17.7113924 19.55097391 20.37700829 18.65606955 23.125 17.8125 C23.125 19.1325 23.125 20.4525 23.125 21.8125 C23.785 21.8125 24.445 21.8125 25.125 21.8125 C24.465 18.1825 23.805 14.5525 23.125 10.8125 C17.76522374 10.30204512 15.4318216 11.7498713 11.125 14.8125 C10.135 14.8125 9.145 14.8125 8.125 14.8125 C8.3725 16.0190625 8.3725 16.0190625 8.625 17.25 C9.21747348 21.47137352 9.21006709 25.55914545 9.125 29.8125 C8.465 29.8125 7.805 29.8125 7.125 29.8125 C6.135 27.8325 5.145 25.8525 4.125 23.8125 C3.465 24.8025 2.805 25.7925 2.125 26.8125 C-0.2578125 27.54296875 -0.2578125 27.54296875 -3 28 C-3.91007812 28.15855469 -4.82015625 28.31710938 -5.7578125 28.48046875 C-6.45648438 28.59003906 -7.15515625 28.69960938 -7.875 28.8125 C-7.875 27.8225 -7.875 26.8325 -7.875 25.8125 C-8.535 25.8125 -9.195 25.8125 -9.875 25.8125 C-10.205 22.8425 -10.535 19.8725 -10.875 16.8125 C-10.215 16.8125 -9.555 16.8125 -8.875 16.8125 C-8.875 17.8025 -8.875 18.7925 -8.875 19.8125 C-7.9675 19.8125 -7.06 19.8125 -6.125 19.8125 C-2.70833333 19.8125 0.70833333 19.8125 4.125 19.8125 C3.56698068 17.77460725 3.56698068 17.77460725 2.125 15.8125 C-0.74211888 14.88997807 -0.74211888 14.88997807 -4 14.5625 C-5.09570312 14.41296875 -6.19140625 14.2634375 -7.3203125 14.109375 C-8.16335937 14.01140625 -9.00640625 13.9134375 -9.875 13.8125 C-9.95614106 12.04242286 -10.01425505 10.27127902 -10.0625 8.5 C-10.09730469 7.51386719 -10.13210937 6.52773438 -10.16796875 5.51171875 C-9.875 2.8125 -9.875 2.8125 -8.79296875 0.9453125 C-5.82016038 -0.81052136 -3.39063946 -0.30465577 0 0 Z " fill="#ECA2A0" transform="translate(53.875,30.1875)"/>
<path d="M0 0 C0.33 0.66 0.66 1.32 1 2 C1.99 2.33 2.98 2.66 4 3 C4.33 2.34 4.66 1.68 5 1 C5.66 1 6.32 1 7 1 C7.26478149 1.93851807 7.26478149 1.93851807 7.53491211 2.89599609 C8.33371081 5.7229187 9.13556672 8.54896509 9.9375 11.375 C10.35418945 12.85226563 10.35418945 12.85226563 10.77929688 14.359375 C11.04677734 15.30039063 11.31425781 16.24140625 11.58984375 17.2109375 C11.83597412 18.08024902 12.08210449 18.94956055 12.33569336 19.84521484 C12.94172747 22.02000258 12.94172747 22.02000258 14 24 C13.67 24.66 13.34 25.32 13 26 C13.66 26 14.32 26 15 26 C15.52879684 28.79037428 16.04834088 31.58192598 16.5625 34.375 C16.71396484 35.1690625 16.86542969 35.963125 17.02148438 36.78125 C18.11328125 42.7734375 18.11328125 42.7734375 17 45 C16.525625 44.525625 16.05125 44.05125 15.5625 43.5625 C11.88355203 41.31923904 8.2378888 41.26260422 4 41 C3.71125 40.030625 3.4225 39.06125 3.125 38.0625 C2.35785318 34.89335797 2.35785318 34.89335797 0 34 C0.33 32.68 0.66 31.36 1 30 C0.01 29.67 -0.98 29.34 -2 29 C-3.6875 27.4375 -3.6875 27.4375 -5 26 C-5.33 26.66 -5.66 27.32 -6 28 C-8.02797315 23.94405371 -8.23599782 21.37353074 -7 17 C-6.52175781 16.52433594 -6.04351562 16.04867187 -5.55078125 15.55859375 C-1.67325226 11.66153061 -0.65753769 5.26030148 0 0 Z M3 32 C3.33 32.99 3.66 33.98 4 35 C4.66 34.01 5.32 33.02 6 32 C5.01 32 4.02 32 3 32 Z " fill="#333050" transform="translate(106,59)"/>
<path d="M0 0 C0.33 0.99 0.66 1.98 1 3 C0.525625 3.9075 0.05125 4.815 -0.4375 5.75 C-2.21429917 9.44574227 -2.24288926 11.95184571 -2 16 C-0.35 16.33 1.3 16.66 3 17 C3 18.32 3 19.64 3 21 C1.02 20.67 -0.96 20.34 -3 20 C-3.495 17.525 -3.495 17.525 -4 15 C-5.32 15 -6.64 15 -8 15 C-8.33 15.66 -8.66 16.32 -9 17 C-9.99 17 -10.98 17 -12 17 C-12.33 18.98 -12.66 20.96 -13 23 C-11.6078125 22.5359375 -11.6078125 22.5359375 -10.1875 22.0625 C-8.125 21.375 -6.0625 20.6875 -4 20 C-4.33 21.32 -4.66 22.64 -5 24 C-5.66 24 -6.32 24 -7 24 C-7.33 24.99 -7.66 25.98 -8 27 C-8.66 27 -9.32 27 -10 27 C-10.33 27.99 -10.66 28.98 -11 30 C-12.32 30 -13.64 30 -15 30 C-15 29.34 -15 28.68 -15 28 C-16.32 28 -17.64 28 -19 28 C-19.22281874 26.08496326 -19.42771076 24.16783494 -19.625 22.25 C-19.74101563 21.18265625 -19.85703125 20.1153125 -19.9765625 19.015625 C-20.00092045 15.88156826 -19.51580684 14.65266197 -18 12 C-17.87625 10.824375 -17.7525 9.64875 -17.625 8.4375 C-17 5 -17 5 -15.4375 3.125 C-11.96652275 1.5230105 -8.80666905 1.31722242 -5 1 C-6.32 2.32 -7.64 3.64 -9 5 C-8.67 5.66 -8.34 6.32 -8 7 C-4.37206002 5.13433512 -4.37206002 5.13433512 -2 2 C-1.34 2 -0.68 2 0 2 C0 1.34 0 0.68 0 0 Z " fill="#C98B89" transform="translate(72,65)"/>
<path d="M0 0 C1.4540625 0.0309375 1.4540625 0.0309375 2.9375 0.0625 C4.93535435 4.1830746 5.11585515 7.51444365 4.9375 12.0625 C4.2775 12.0625 3.6175 12.0625 2.9375 12.0625 C2.6075 11.0725 2.2775 10.0825 1.9375 9.0625 C0.62147477 9.68004259 -0.69023556 10.30678742 -2 10.9375 C-3.09634766 11.45957031 -3.09634766 11.45957031 -4.21484375 11.9921875 C-6.22582459 12.9309977 -6.22582459 12.9309977 -7.0625 15.0625 C-6.45921875 14.96710937 -5.8559375 14.87171875 -5.234375 14.7734375 C-4.03554687 14.60714844 -4.03554687 14.60714844 -2.8125 14.4375 C-2.02359375 14.32148437 -1.2346875 14.20546875 -0.421875 14.0859375 C1.9375 14.0625 1.9375 14.0625 5.9375 16.0625 C5.9375 12.4325 5.9375 8.8025 5.9375 5.0625 C6.2675 5.0625 6.5975 5.0625 6.9375 5.0625 C7.01857583 6.99931161 7.07672475 8.9370934 7.125 10.875 C7.17720703 12.49341797 7.17720703 12.49341797 7.23046875 14.14453125 C6.9375 17.0625 6.9375 17.0625 5.67578125 19.01171875 C3.9375 20.0625 3.9375 20.0625 2.0078125 19.66796875 C1.32460937 19.46816406 0.64140625 19.26835938 -0.0625 19.0625 C-2.16289963 19.50349087 -2.16289963 19.50349087 -4.1875 20.375 C-4.87070313 20.63925781 -5.55390625 20.90351562 -6.2578125 21.17578125 C-8.24862142 22.03341224 -8.24862142 22.03341224 -10.0625 24.0625 C-12.98341393 24.43697615 -14.45840072 24.4999512 -16.875 22.75 C-18.0625 21.0625 -18.0625 21.0625 -18.0625 18.0625 C-17.4025 18.0625 -16.7425 18.0625 -16.0625 18.0625 C-15.7325 17.0725 -15.4025 16.0825 -15.0625 15.0625 C-14.4025 16.7125 -13.7425 18.3625 -13.0625 20.0625 C-12.4025 20.0625 -11.7425 20.0625 -11.0625 20.0625 C-11.3925 15.1125 -11.7225 10.1625 -12.0625 5.0625 C-10.01171875 4.05338542 -7.9609375 3.04427083 -5.91015625 2.03515625 C-2.12662005 0.04340041 -2.12662005 0.04340041 0 0 Z " fill="#D78388" transform="translate(74.0625,39.9375)"/>
<path d="M0 0 C-2.30718811 4.28477792 -4.32966073 7.72291137 -8 11 C-8 10.01 -8 9.02 -8 8 C-8.66 8 -9.32 8 -10 8 C-10.33 8.99 -10.66 9.98 -11 11 C-14.0625 12.6875 -14.0625 12.6875 -17 14 C-17 12.68 -17 11.36 -17 10 C-16.01 9.34 -15.02 8.68 -14 8 C-15.48011371 8.30798326 -16.95907325 8.621518 -18.4375 8.9375 C-19.26121094 9.11152344 -20.08492187 9.28554687 -20.93359375 9.46484375 C-22.97661204 9.80752994 -22.97661204 9.80752994 -24 11 C-24.36760731 13.32817964 -24.70241581 15.6618385 -25 18 C-25.33 18 -25.66 18 -26 18 C-26.04125 16.7625 -26.0825 15.525 -26.125 14.25 C-26.32562155 12.03703351 -26.32562155 12.03703351 -27 10 C-29.81420633 7.67939769 -29.81420633 7.67939769 -33 6 C-34.6953125 3.890625 -34.6953125 3.890625 -36 2 C-33.68715544 2.14026283 -31.37472409 2.28735558 -29.0625 2.4375 C-27.13083984 2.55931641 -27.13083984 2.55931641 -25.16015625 2.68359375 C-22 3 -22 3 -21 4 C-18.58416247 4.33374277 -18.58416247 4.33374277 -16 4 C-15.54625 3.54625 -15.0925 3.0925 -14.625 2.625 C-10.57908507 -1.42091493 -5.22309055 -1.27392453 0 0 Z " fill="#64282F" transform="translate(80,59)"/>
<path d="M0 0 C1.6498275 0.42218816 3.29483665 0.86324425 4.9375 1.3125 C6.31228516 1.67794922 6.31228516 1.67794922 7.71484375 2.05078125 C8.84599609 2.52064453 8.84599609 2.52064453 10 3 C10.495 4.485 10.495 4.485 11 6 C8.69 6 6.38 6 4 6 C4.12375 7.1446875 4.12375 7.1446875 4.25 8.3125 C4 11 4 11 2.2734375 12.62109375 C-4.14321533 16.51298112 -12.89539277 14.98255206 -20 14 C-20.33 14.99 -20.66 15.98 -21 17 C-22.24546405 14.50907189 -21.7767578 13.58919267 -21 11 C-19.37585622 10.80522261 -17.75063577 10.61940542 -16.125 10.4375 C-15.22007813 10.33308594 -14.31515625 10.22867188 -13.3828125 10.12109375 C-11 10 -11 10 -9 11 C-9 10.01 -9 9.02 -9 8 C-10.32 7.34 -11.64 6.68 -13 6 C-12.01 5.67 -11.02 5.34 -10 5 C-7.3125 6.4375 -7.3125 6.4375 -5 8 C-4.731875 7.4225 -4.46375 6.845 -4.1875 6.25 C-2.98199197 3.96587952 -1.56864477 2.04568469 0 0 Z " fill="#1F1C35" transform="translate(30,91)"/>
<path d="M0 0 C4.307963 -0.20037037 7.0451599 0.41806396 11 2 C14.84664472 2.24041529 18.25453681 1.88128546 22 1 C25.72943753 5.72786963 25.35415147 10.0822532 25.1875 15.8125 C25.16719727 17.13797852 25.16719727 17.13797852 25.14648438 18.49023438 C25.11129217 20.66042023 25.05748985 22.83029033 25 25 C24.31292969 24.9278125 23.62585938 24.855625 22.91796875 24.78125 C22.01691406 24.6884375 21.11585937 24.595625 20.1875 24.5 C18.84751953 24.36078125 18.84751953 24.36078125 17.48046875 24.21875 C14.91694901 23.95607599 14.91694901 23.95607599 12 24 C12.5 22.1875 12.5 22.1875 14 20 C16.5863924 18.73847391 19.25200829 17.84356955 22 17 C22 18.32 22 19.64 22 21 C22.66 21 23.32 21 24 21 C23.34 17.37 22.68 13.74 22 10 C21.01 9.67 20.02 9.34 19 9 C18.67 8.34 18.34 7.68 18 7 C15.48036578 6.64327759 12.98666757 6.55624883 10.4453125 6.44140625 C7.62677725 5.93262912 6.68901542 5.27625588 5 3 C5 2.34 5 1.68 5 1 C3.35 1 1.7 1 0 1 C0 0.67 0 0.34 0 0 Z " fill="#E58F93" transform="translate(55,31)"/>
<path d="M0 0 C1.14647726 3.43943179 0.91798123 3.97825167 -0.5625 7.125 C-2.25911787 10.35806552 -2.56342894 10.85447631 -6.1875 12.0625 C-9 12 -9 12 -10 11 C-10.66 12.65 -11.32 14.3 -12 16 C-14.31 16 -16.62 16 -19 16 C-18.77113691 14.22631108 -18.5160762 12.45598923 -18.25 10.6875 C-18.11078125 9.70136719 -17.9715625 8.71523437 -17.828125 7.69921875 C-16.83343549 4.45709396 -15.94924934 3.60102107 -13 2 C-10.31915596 1.3591413 -7.76154323 1.2301286 -5 1 C-6.32 2.32 -7.64 3.64 -9 5 C-8.67 5.66 -8.34 6.32 -8 7 C-4.37206002 5.13433512 -4.37206002 5.13433512 -2 2 C-1.34 2 -0.68 2 0 2 C0 1.34 0 0.68 0 0 Z " fill="#CB797C" transform="translate(72,65)"/>
<path d="M0 0 C1.11375 0.7115625 1.11375 0.7115625 2.25 1.4375 C-1.4277701 2.66342337 -4.2565998 2.31880001 -8.125 2.125 C-13.18915743 1.89425381 -13.18915743 1.89425381 -17.77734375 3.76953125 C-19.24058217 5.58605885 -19.24058217 5.58605885 -20.75 8.4375 C-21.41 8.4375 -22.07 8.4375 -22.75 8.4375 C-22.42 6.7875 -22.09 5.1375 -21.75 3.4375 C-26.17982346 5.71569492 -28.59811156 8.63907034 -31.75 12.4375 C-34.0625 13.8125 -34.0625 13.8125 -35.75 14.4375 C-34.07652499 8.90215957 -32.08970765 4.36390216 -27.75 0.4375 C-27.42 1.0975 -27.09 1.7575 -26.75 2.4375 C-26.09 2.4375 -25.43 2.4375 -24.75 2.4375 C-24.75 1.7775 -24.75 1.1175 -24.75 0.4375 C-16.83902763 -3.09846493 -7.99368472 -3.94959836 0 0 Z " fill="#634F5B" transform="translate(70.75,7.5625)"/>
<path d="M0 0 C1.4540625 0.0309375 1.4540625 0.0309375 2.9375 0.0625 C4.93535435 4.1830746 5.11585515 7.51444365 4.9375 12.0625 C4.2775 12.0625 3.6175 12.0625 2.9375 12.0625 C2.6075 11.0725 2.2775 10.0825 1.9375 9.0625 C0.9475 9.5575 0.9475 9.5575 -0.0625 10.0625 C-1.60273996 10.13200541 -3.14584988 10.14702357 -4.6875 10.125 C-5.91339844 10.11146484 -5.91339844 10.11146484 -7.1640625 10.09765625 C-8.10378906 10.08025391 -8.10378906 10.08025391 -9.0625 10.0625 C-8.7325 11.7125 -8.4025 13.3625 -8.0625 15.0625 C-10.0625 13.4375 -10.0625 13.4375 -12.0625 11.0625 C-12.3125 7.8125 -12.3125 7.8125 -12.0625 5.0625 C-11.49660156 4.78535156 -10.93070313 4.50820313 -10.34765625 4.22265625 C-9.61417969 3.86042969 -8.88070312 3.49820313 -8.125 3.125 C-7.02865234 2.58552734 -7.02865234 2.58552734 -5.91015625 2.03515625 C-2.12662005 0.04340041 -2.12662005 0.04340041 0 0 Z " fill="#BF7D7D" transform="translate(74.0625,39.9375)"/>
<path d="M0 0 C1.65 0.33 3.3 0.66 5 1 C5.33 2.32 5.66 3.64 6 5 C4.68 5 3.36 5 2 5 C2 5.66 2 6.32 2 7 C4.475 7.99 4.475 7.99 7 9 C7 9.66 7 10.32 7 11 C5.68 10.67 4.36 10.34 3 10 C3 9.34 3 8.68 3 8 C0.36 8.99 -2.28 9.98 -5 11 C-1.89459074 12.21081851 -1.89459074 12.21081851 2 12 C2 12.99 2 13.98 2 15 C0.68 15 -0.64 15 -2 15 C-2 15.66 -2 16.32 -2 17 C-4.3125 17.3125 -4.3125 17.3125 -7 17 C-8.875 14.8125 -8.875 14.8125 -10 12 C-9.6875 9.1875 -9.6875 9.1875 -9 7 C-7.02 7 -5.04 7 -3 7 C-2.67 6.01 -2.34 5.02 -2 4 C-1.34 4 -0.68 4 0 4 C0 2.68 0 1.36 0 0 Z " fill="#B9817F" transform="translate(71,88)"/>
<path d="M0 0 C2 3 2 3 1.828125 5.09375 C1.54195312 6.28484375 1.54195312 6.28484375 1.25 7.5 C0.59641068 10.28485885 0.00260743 12.97836131 -0.33984375 15.8203125 C-1.23452491 23.03807734 -3.51670232 27.19917284 -9 32 C-11.9375 34 -11.9375 34 -14 35 C-15 32 -15 32 -14.3125 30.0625 C-12.80207972 27.68898241 -10.98860843 25.98860843 -9 24 C-5.15653914 18.57393761 -2.90099919 14.46565829 -1.9375 7.875 C-1.09722222 2.19444444 -1.09722222 2.19444444 0 0 Z " fill="#201725" transform="translate(84,42)"/>
<path d="M0 0 C1.22848705 3.68546116 0.94425052 6.43824964 0.6875 10.3125 C0.56955078 12.25576172 0.56955078 12.25576172 0.44921875 14.23828125 C0.02651841 17.77793713 -0.80845282 20.65899515 -2 24 C-2.43300876 26.27905752 -2.43300876 26.27905752 -2.625 28.375 C-2.74875 29.57125 -2.8725 30.7675 -3 32 C-3.33 32 -3.66 32 -4 32 C-4.0501123 31.44538086 -4.10022461 30.89076172 -4.15185547 30.31933594 C-4.38461674 27.79538036 -4.62968036 25.27276461 -4.875 22.75 C-4.95363281 21.87730469 -5.03226562 21.00460938 -5.11328125 20.10546875 C-5.19707031 19.26113281 -5.28085938 18.41679688 -5.3671875 17.546875 C-5.44050293 16.77182617 -5.51381836 15.99677734 -5.58935547 15.19824219 C-6.03679476 12.8030321 -6.7338177 11.07769261 -8 9 C-10.0335948 7.73195434 -10.0335948 7.73195434 -12 7 C-10.68 6.34 -9.36 5.68 -8 5 C-7.01 6.32 -6.02 7.64 -5 9 C-5 7.68 -5 6.36 -5 5 C-5 4.34 -5 3.68 -5 3 C-2.5 1.375 -2.5 1.375 0 0 Z " fill="#3F2D35" transform="translate(85,24)"/>
<path d="M0 0 C0.33 0.66 0.66 1.32 1 2 C1.99 2.33 2.98 2.66 4 3 C4.33 2.34 4.66 1.68 5 1 C4.34 6.94 3.68 12.88 3 19 C-1 19 -1 19 -4 17 C-4 15.68 -4 14.36 -4 13 C-2.68 12.67 -1.36 12.34 0 12 C0 10.68 0 9.36 0 8 C-1.65 8 -3.3 8 -5 8 C-3.68 7.67 -2.36 7.34 -1 7 C-1 6.01 -1 5.02 -1 4 C-3.31 4.33 -5.62 4.66 -8 5 C-8 4.01 -8 3.02 -8 2 C-2.25 0 -2.25 0 0 0 Z " fill="#B46E70" transform="translate(74,96)"/>
<path d="M0 0 C0 1.98 0 3.96 0 6 C-1.9375 6.5625 -1.9375 6.5625 -4 7 C-4.33 6.67 -4.66 6.34 -5 6 C-5.66 6 -6.32 6 -7 6 C-6.67 7.65 -6.34 9.3 -6 11 C-6.99 11.495 -6.99 11.495 -8 12 C-8.45375 13.155 -8.9075 14.31 -9.375 15.5 C-10.179375 17.2325 -10.179375 17.2325 -11 19 C-13.125 19.75 -13.125 19.75 -15 20 C-15.33 20.99 -15.66 21.98 -16 23 C-16.66 23 -17.32 23 -18 23 C-18.40502384 19.69230527 -18.65689766 17.07886317 -16.875 14.15234375 C-14.36641968 11.17993738 -11.64102841 8.63622783 -8.625 6.1875 C-7.75875 5.465625 -6.8925 4.74375 -6 4 C-6 3.34 -6 2.68 -6 2 C-2.25 0 -2.25 0 0 0 Z " fill="#4A313B" transform="translate(49,11)"/>
<path d="M0 0 C0.99 0.33 1.98 0.66 3 1 C3.36555199 7.33623454 3.36555199 7.33623454 1.8125 10.15625 C-0.46736514 12.47542316 -2.0043964 12.75393191 -5.1875 13.25 C-6.08855469 13.39953125 -6.98960938 13.5490625 -7.91796875 13.703125 C-8.94857422 13.85007812 -8.94857422 13.85007812 -10 14 C-10 13.01 -10 12.02 -10 11 C-10.66 11 -11.32 11 -12 11 C-12.33 8.03 -12.66 5.06 -13 2 C-12.34 2 -11.68 2 -11 2 C-11 2.99 -11 3.98 -11 5 C-10.0925 5 -9.185 5 -8.25 5 C-4.83333333 5 -1.41666667 5 2 5 C1.34 3.35 0.68 1.7 0 0 Z " fill="#C27D7E" transform="translate(56,45)"/>
<path d="M0 0 C-2.30718811 4.28477792 -4.32966073 7.72291137 -8 11 C-8 10.01 -8 9.02 -8 8 C-8.66 8 -9.32 8 -10 8 C-10.33 8.99 -10.66 9.98 -11 11 C-14.0625 12.6875 -14.0625 12.6875 -17 14 C-17 12.68 -17 11.36 -17 10 C-16.01 9.34 -15.02 8.68 -14 8 C-14 7.01 -14 6.02 -14 5 C-13.34 5 -12.68 5 -12 5 C-12.33 3.68 -12.66 2.36 -13 1 C-8.20862412 -0.6290678 -4.94367454 -1.20577428 0 0 Z " fill="#8E4A4F" transform="translate(80,59)"/>
<path d="M0 0 C0.66 0 1.32 0 2 0 C2.4125 0.99 2.825 1.98 3.25 3 C3.83107453 4.33431928 4.41454932 5.66759501 5 7 C5.2784375 7.66 5.556875 8.32 5.84375 9 C7.64517887 12.97556716 9.51631772 15.66513759 12.75 18.625 C15.94796154 21.59112637 15.94796154 21.59112637 16.4375 25.4375 C16.2209375 26.7059375 16.2209375 26.7059375 16 28 C11.48285983 26.65706644 10.2308948 25.05617236 8 21 C7.01 20.34 6.02 19.68 5 19 C4.46486293 17.16046631 3.9458902 15.31350323 3.5390625 13.44140625 C2.911356 10.59853262 2.14986793 7.80618057 1.375 5 C1.11460938 4.05125 0.85421875 3.1025 0.5859375 2.125 C0.39257812 1.42375 0.19921875 0.7225 0 0 Z " fill="#16101C" transform="translate(37,48)"/>
<path d="M0 0 C1.32 0 2.64 0 4 0 C7 3.21428571 7 3.21428571 7 6 C8.32 6.33 9.64 6.66 11 7 C10.25 9.9375 10.25 9.9375 9 13 C7.1875 14.0625 7.1875 14.0625 5 14 C2.25 12.5625 2.25 12.5625 0 11 C0.33 8.69 0.66 6.38 1 4 C-0.65 4.33 -2.3 4.66 -4 5 C-2.25 2.5 -2.25 2.5 0 0 Z " fill="#21171F" transform="translate(68,15)"/>
<path d="M0 0 C0.99 0.33 1.98 0.66 3 1 C4.1875 4.5625 4.1875 4.5625 5 8 C2.36 9.98 -0.28 11.96 -3 14 C-4.32 13.34 -5.64 12.68 -7 12 C-7.39397781 8.55269416 -7.1644697 7.24386886 -5.1875 4.3125 C-3 2 -3 2 0 0 Z " fill="#2A2646" transform="translate(49,91)"/>
<path d="M0 0 C1.32 0.33 2.64 0.66 4 1 C4 1.99 4 2.98 4 4 C5.56215548 4.16986545 7.1247452 4.33573964 8.6875 4.5 C9.99267578 4.63921875 9.99267578 4.63921875 11.32421875 4.78125 C13.89723339 4.99159864 16.41984364 5.03719144 19 5 C19 6.32 19 7.64 19 9 C17.68 9.33 16.36 9.66 15 10 C15 11.32 15 12.64 15 14 C15.9590625 14.433125 15.9590625 14.433125 16.9375 14.875 C19 16 19 16 20 18 C17.625 17.6875 17.625 17.6875 15 17 C13 14 13 14 13 10 C12.278125 10.103125 11.55625 10.20625 10.8125 10.3125 C6.79353518 9.86594835 5.56264371 8.03470966 3 5 C1.94712186 3.36622358 0.9272999 1.70818403 0 0 Z " fill="#9A6062" transform="translate(55,99)"/>
<path d="M0 0 C2.64 0 5.28 0 8 0 C8 0.66 8 1.32 8 2 C5.5 3.625 5.5 3.625 3 5 C3.99 5.33 4.98 5.66 6 6 C5.67 6.99 5.34 7.98 5 9 C4.34 9 3.68 9 3 9 C2.34 10.65 1.68 12.3 1 14 C0.34 14 -0.32 14 -1 14 C-1 13.01 -1 12.02 -1 11 C-2.65 10.67 -4.3 10.34 -6 10 C-4.98823563 6.59679258 -4.35156418 5.24274669 -1.375 3.1875 C-0.59125 2.795625 0.1925 2.40375 1 2 C0.67 1.34 0.34 0.68 0 0 Z " fill="#4E333E" transform="translate(57,9)"/>
<path d="M0 0 C0.77601562 0.07863281 1.55203125 0.15726563 2.3515625 0.23828125 C4.375 0.6875 4.375 0.6875 6.375 2.6875 C6.375 3.6775 6.375 4.6675 6.375 5.6875 C1.33031271 7.90224076 -1.48410687 7.53822153 -6.625 5.6875 C-6.625 4.6975 -6.625 3.7075 -6.625 2.6875 C-7.285 2.6875 -7.945 2.6875 -8.625 2.6875 C-8.625 2.0275 -8.625 1.3675 -8.625 0.6875 C-5.57661559 -0.23815097 -3.16010031 -0.35405806 0 0 Z " fill="#9C5B5E" transform="translate(51.625,44.3125)"/>
<path d="M0 0 C1.48206495 0.254496 2.96068615 0.52911762 4.4375 0.8125 C5.67306641 1.03873047 5.67306641 1.03873047 6.93359375 1.26953125 C7.61550781 1.51058594 8.29742187 1.75164062 9 2 C9.33 2.99 9.66 3.98 10 5 C7.69 5 5.38 5 3 5 C3.061875 5.78375 3.12375 6.5675 3.1875 7.375 C3.125625 8.24125 3.06375 9.1075 3 10 C-0.22791555 12.1519437 -1.28400809 12.20086443 -5 12 C-4.67 10.68 -4.34 9.36 -4 8 C-3.34 8 -2.68 8 -2 8 C-2 7.34 -2 6.68 -2 6 C-1.34 6 -0.68 6 0 6 C0 4.02 0 2.04 0 0 Z " fill="#141222" transform="translate(31,92)"/>
<path d="M0 0 C1.98 0 3.96 0 6 0 C6 0.66 6 1.32 6 2 C6.474375 2.433125 6.94875 2.86625 7.4375 3.3125 C9.41383086 5.44693733 9.61663236 7.16307947 10 10 C7.525 11.485 7.525 11.485 5 13 C4.01 12.34 3.02 11.68 2 11 C2.33 9.02 2.66 7.04 3 5 C-0.32604951 3.89131683 -3.53058454 3.45822468 -7 3 C-7 2.67 -7 2.34 -7 2 C-3.535 1.505 -3.535 1.505 0 1 C0 0.67 0 0.34 0 0 Z " fill="#211D37" transform="translate(113,100)"/>
<path d="M0 0 C0.721875 0.144375 1.44375 0.28875 2.1875 0.4375 C3.5796875 0.7159375 3.5796875 0.7159375 5 1 C6.66666667 1.33333333 8.33333333 1.66666667 10 2 C10 2.66 10 3.32 10 4 C10.99 4.33 11.98 4.66 13 5 C13 5.66 13 6.32 13 7 C13.99 6.67 14.98 6.34 16 6 C18.3406065 6.27769908 20.67624308 6.60539977 23 7 C23.33 7.99 23.66 8.98 24 10 C20.535 11.485 20.535 11.485 17 13 C16.67 11.68 16.34 10.36 16 9 C15.05125 8.855625 14.1025 8.71125 13.125 8.5625 C10 8 10 8 8 7 C8 6.34 8 5.68 8 5 C7.01 5 6.02 5 5 5 C3.4375 3.625 3.4375 3.625 2 2 C1.34 1.34 0.68 0.68 0 0 Z " fill="#DF9595" transform="translate(50,30)"/>
<path d="M0 0 C1.32 0.66 2.64 1.32 4 2 C4.32712342 8.13053511 4.39366878 12.62669111 1 18 C0.34 18 -0.32 18 -1 18 C-3.60018816 14.09971775 -3.15085514 10.52565431 -3 6 C-3.66 6 -4.32 6 -5 6 C-5.33 4.35 -5.66 2.7 -6 1 C-2 5 -2 5 -0.375 6.6875 C0.98621473 8.11564313 0.98621473 8.11564313 3 9 C1.78955868 4.39257135 1.78955868 4.39257135 0 0 Z " fill="#2E2235" transform="translate(50,67)"/>
<path d="M0 0 C-1.27575075 2.55150151 -2.10550906 2.66950875 -4.75 3.625 C-10.76159483 5.55764519 -16.75407901 5.26064894 -23 5 C-22.67 3.68 -22.34 2.36 -22 1 C-19.27093526 0.83150207 -16.54176829 0.6651397 -13.8125 0.5 C-13.04357422 0.45230469 -12.27464844 0.40460938 -11.48242188 0.35546875 C-7.648496 0.12510411 -3.84309823 -0.0616128 0 0 Z " fill="#141120" transform="translate(74,123)"/>
<path d="M0 0 C0 0.66 0 1.32 0 2 C-1.65 2.33 -3.3 2.66 -5 3 C-2.525 3.99 -2.525 3.99 0 5 C0 5.66 0 6.32 0 7 C-1.60203467 7.36368892 -3.20674203 7.71561952 -4.8125 8.0625 C-5.70582031 8.25972656 -6.59914063 8.45695312 -7.51953125 8.66015625 C-10 9 -10 9 -13 8 C-12.875 6.25 -12.875 6.25 -12 4 C-7.95345317 0.61219335 -5.26424467 -0.50135664 0 0 Z " fill="#8B4D52" transform="translate(77,40)"/>
<path d="M0 0 C0.87527344 0.18304687 1.75054687 0.36609375 2.65234375 0.5546875 C5.0625 1.125 5.0625 1.125 8.0625 2.125 C8.0625 2.785 8.0625 3.445 8.0625 4.125 C8.74957031 4.25777344 9.43664062 4.39054687 10.14453125 4.52734375 C11.04558594 4.70394531 11.94664063 4.88054688 12.875 5.0625 C14.21498047 5.32353516 14.21498047 5.32353516 15.58203125 5.58984375 C18.0625 6.125 18.0625 6.125 21.0625 7.125 C20.7325 7.455 20.4025 7.785 20.0625 8.125 C14.17649958 7.97841378 8.64233731 6.94451217 3.0625 5.125 C3.0625 4.465 3.0625 3.805 3.0625 3.125 C-0.2375 2.795 -3.5375 2.465 -6.9375 2.125 C-6.9375 1.465 -6.9375 0.805 -6.9375 0.125 C-4.25716992 -1.21516504 -2.90251998 -0.62227301 0 0 Z " fill="#7E4B50" transform="translate(51.9375,25.875)"/>
<path d="M0 0 C-1.65 0.33 -3.3 0.66 -5 1 C-4.835 1.804375 -4.67 2.60875 -4.5 3.4375 C-3.90752652 7.65887352 -3.91493291 11.74664545 -4 16 C-4.66 16 -5.32 16 -6 16 C-8.18994248 12.71508627 -8.35277339 11.16904361 -8.625 7.3125 C-8.69976562 6.31863281 -8.77453125 5.32476562 -8.8515625 4.30078125 C-8.90054688 3.54152344 -8.94953125 2.78226563 -9 2 C-11.97 1.505 -11.97 1.505 -15 1 C-15 0.67 -15 0.34 -15 0 C-13.25093341 -0.19601608 -11.50068154 -0.38147403 -9.75 -0.5625 C-8.77546875 -0.66691406 -7.8009375 -0.77132812 -6.796875 -0.87890625 C-4.2368648 -0.98974468 -2.41851841 -0.77738092 0 0 Z " fill="#D68689" transform="translate(67,44)"/>
<path d="M0 0 C4.307963 -0.20037037 7.0451599 0.41806396 11 2 C14.84664472 2.24041529 18.25453681 1.88128546 22 1 C24.98514628 5.10457614 25.2954439 7.97745369 25 13 C24.67 13 24.34 13 24 13 C23.71125 11.865625 23.4225 10.73125 23.125 9.5625 C22.75375 8.386875 22.3825 7.21125 22 6 C18.5323714 4.2661857 14.60523659 5.55509711 10.84765625 6.0390625 C8 6 8 6 6.12109375 4.6484375 C5 3 5 3 5 1 C3.35 1 1.7 1 0 1 C0 0.67 0 0.34 0 0 Z " fill="#C58181" transform="translate(55,31)"/>
<path d="M0 0 C-2.76565382 0.92188461 -4.38283702 1.11785222 -7.23046875 1.09765625 C-8.03291016 1.09443359 -8.83535156 1.09121094 -9.66210938 1.08789062 C-10.49548828 1.07951172 -11.32886719 1.07113281 -12.1875 1.0625 C-13.03248047 1.05798828 -13.87746094 1.05347656 -14.74804688 1.04882812 C-16.83206155 1.03705403 -18.91603977 1.0191189 -21 1 C-21.33 -0.32 -21.66 -1.64 -22 -3 C-14.83190169 -5.26360999 -6.28216933 -4.01360818 0 0 Z " fill="#7D6D79" transform="translate(73,9)"/>
<path d="M0 0 C0.33 0 0.66 0 1 0 C1.08107583 1.93681161 1.13922475 3.8745934 1.1875 5.8125 C1.22230469 6.89144531 1.25710937 7.97039063 1.29296875 9.08203125 C1 12 1 12 -0.37890625 13.91015625 C-2 15 -2 15 -4.125 14.625 C-4.74375 14.41875 -5.3625 14.2125 -6 14 C-6.33 14.33 -6.66 14.66 -7 15 C-8.66617115 15.04063832 -10.33388095 15.042721 -12 15 C-12 14.01 -12 13.02 -12 12 C-12.66 11.67 -13.32 11.34 -14 11 C-7.25 10.875 -7.25 10.875 -5 12 C-5 11.34 -5 10.68 -5 10 C-6.65 10 -8.3 10 -10 10 C-10 9.67 -10 9.34 -10 9 C-5.69986566 8.80453935 -3.99110319 9.0044484 0 11 C0 7.37 0 3.74 0 0 Z " fill="#B97376" transform="translate(80,45)"/>
<path d="M0 0 C0.33 0.99 0.66 1.98 1 3 C0.01 3.33 -0.98 3.66 -2 4 C-2.33 4.99 -2.66 5.98 -3 7 C-3.66 7 -4.32 7 -5 7 C-5.33 7.99 -5.66 8.98 -6 10 C-7.32 10 -8.64 10 -10 10 C-10 9.34 -10 8.68 -10 8 C-11.32 8 -12.64 8 -14 8 C-14 6.02 -14 4.04 -14 2 C-13.54625 2.495 -13.0925 2.99 -12.625 3.5 C-11.12364481 5.22609337 -11.12364481 5.22609337 -9 5 C-8.67 5.66 -8.34 6.32 -8 7 C-7.79375 6.401875 -7.5875 5.80375 -7.375 5.1875 C-5.49073918 2.18981233 -3.18867916 1.38638224 0 0 Z " fill="#C38986" transform="translate(67,85)"/>
<path d="M0 0 C2 3 2 3 2 5 C2.99 5 3.98 5 5 5 C5.33 5.99 5.66 6.98 6 8 C4.68 8.33 3.36 8.66 2 9 C2 9.66 2 10.32 2 11 C2.99 11.66 3.98 12.32 5 13 C2.69 13 0.38 13 -2 13 C-2.05391993 11.20866022 -2.09275571 9.41686101 -2.125 7.625 C-2.14820313 6.62726562 -2.17140625 5.62953125 -2.1953125 4.6015625 C-2 2 -2 2 0 0 Z " fill="#E19695" transform="translate(46,31)"/>
<path d="M0 0 C0.90105469 0.11988281 1.80210938 0.23976563 2.73046875 0.36328125 C3.41753906 0.47027344 4.10460938 0.57726562 4.8125 0.6875 C4.4825 1.3475 4.1525 2.0075 3.8125 2.6875 C2.69875 2.64625 1.585 2.605 0.4375 2.5625 C-3.23116025 2.27628141 -3.23116025 2.27628141 -5.1875 4.6875 C-5.39246073 6.83176283 -5.39246073 6.83176283 -5.25 9.1875 C-5.08931269 13.49112538 -5.08931269 13.49112538 -6.1875 15.6875 C-6.8475 15.6875 -7.5075 15.6875 -8.1875 15.6875 C-8.2685206 13.58396505 -8.32669907 11.47954048 -8.375 9.375 C-8.40980469 8.20324219 -8.44460937 7.03148437 -8.48046875 5.82421875 C-8.1875 2.6875 -8.1875 2.6875 -7 0.75 C-4.47320698 -0.73122349 -2.86924334 -0.40989191 0 0 Z " fill="#C58483" transform="translate(50.1875,28.3125)"/>
<path d="M0 0 C-0.33 0.66 -0.66 1.32 -1 2 C-0.01 2 0.98 2 2 2 C2 2.66 2 3.32 2 4 C-0.64738916 5.4606285 -1.89448334 6 -5 6 C-4.67 7.65 -4.34 9.3 -4 11 C-4.66 11 -5.32 11 -6 11 C-6.19491452 9.54263913 -6.38069358 8.08405407 -6.5625 6.625 C-6.66691406 5.81289062 -6.77132813 5.00078125 -6.87890625 4.1640625 C-7 2 -7 2 -6 0 C-2.49056604 -1.24528302 -2.49056604 -1.24528302 0 0 Z " fill="#272543" transform="translate(13,112)"/>
<path d="M0 0 C10.55808656 -0.18451025 10.55808656 -0.18451025 15 1 C15 1.66 15 2.32 15 3 C10.96924328 4.06696501 8.07138656 3.67856443 4 3 C1.23135047 3.36858988 1.23135047 3.36858988 -1 4 C-1 4.66 -1 5.32 -1 6 C-1.66 6 -2.32 6 -3 6 C-3 4.68 -3 3.36 -3 2 C-2.34 2 -1.68 2 -1 2 C-0.67 1.34 -0.34 0.68 0 0 Z " fill="#292746" transform="translate(10,105)"/>
<path d="M0 0 C0 3 0 3 -1 5 C-1.58007812 4.97679687 -2.16015625 4.95359375 -2.7578125 4.9296875 C-7.61411166 4.81749577 -11.42932395 5.12485085 -16 7 C-15.67 6.01 -15.34 5.02 -15 4 C-12.890625 3.0859375 -12.890625 3.0859375 -10.25 2.375 C-9.38890625 2.13523438 -8.5278125 1.89546875 -7.640625 1.6484375 C-5.10405916 1.02555299 -2.56542714 0.48909223 0 0 Z " fill="#514B68" transform="translate(36,43)"/>
<path d="M0 0 C8.20224719 6.74157303 8.20224719 6.74157303 10 10 C9.67 10.99 9.34 11.98 9 13 C7.0625 12.1875 7.0625 12.1875 5 11 C4.67 10.01 4.34 9.02 4 8 C3.319375 7.54625 2.63875 7.0925 1.9375 6.625 C0 5 0 5 -0.25 2.3125 C-0.1675 1.549375 -0.085 0.78625 0 0 Z " fill="#5E4955" transform="translate(75,11)"/>
<path d="M0 0 C0.33 0 0.66 0 1 0 C1.36122881 1.31057393 1.71380311 2.62353624 2.0625 3.9375 C2.25972656 4.66839844 2.45695313 5.39929688 2.66015625 6.15234375 C2.77230469 6.76207031 2.88445313 7.37179688 3 8 C2.67 8.33 2.34 8.66 2 9 C1.95919217 10.99958364 1.95745644 13.00045254 2 15 C1.34 15 0.68 15 0 15 C0 16.32 0 17.64 0 19 C-0.66 19 -1.32 19 -2 19 C-2.0991667 12.90675749 -2.17328971 6.99681407 -1 1 C-0.67 0.67 -0.34 0.34 0 0 Z " fill="#6A657D" transform="translate(9,87)"/>
<path d="M0 0 C1.85776765 3.13498292 2.20140476 5.37471432 2 9 C1.34 9 0.68 9 0 9 C-0.33 9.66 -0.66 10.32 -1 11 C-1.66 10.67 -2.32 10.34 -3 10 C-3 9.34 -3 8.68 -3 8 C-1.68 8 -0.36 8 1 8 C0.67 7.01 0.34 6.02 0 5 C-2.50447516 3.78130071 -2.50447516 3.78130071 -5 3 C-5 4.32 -5 5.64 -5 7 C-5.99 7.66 -6.98 8.32 -8 9 C-8.99 8.67 -9.98 8.34 -11 8 C-9.4375 5 -9.4375 5 -7 2 C-3.25 1.625 -3.25 1.625 0 2 C0 1.34 0 0.68 0 0 Z " fill="#9F5D61" transform="translate(76,85)"/>
<path d="M0 0 C0 0.66 0 1.32 0 2 C-7.28571429 5.57142857 -7.28571429 5.57142857 -12 4 C-12.33 2.68 -12.66 1.36 -13 0 C-8.37078475 -1.0161692 -4.65537393 -0.83796731 0 0 Z " fill="#5C5772" transform="translate(99,40)"/>
<path d="M0 0 C4.0838 5.27490834 2.5924505 13.58923229 2.5 19.9375 C1.84 19.6075 1.18 19.2775 0.5 18.9375 C0.51160156 18.26203125 0.52320312 17.5865625 0.53515625 16.890625 C0.54417969 15.99859375 0.55320312 15.1065625 0.5625 14.1875 C0.57410156 13.30578125 0.58570312 12.4240625 0.59765625 11.515625 C0.50640071 9.10647863 0.38409929 7.1805862 -0.5 4.9375 C-1.49 4.6075 -2.48 4.2775 -3.5 3.9375 C-3.83 3.2775 -4.16 2.6175 -4.5 1.9375 C-6.82156597 1.53020772 -9.1568787 1.19311323 -11.5 0.9375 C-11.5 0.6075 -11.5 0.2775 -11.5 -0.0625 C-3.48971266 -1.48312788 -3.48971266 -1.48312788 0 0 Z " fill="#CC8D8A" transform="translate(77.5,36.0625)"/>
<path d="M0 0 C4.455 0.99 4.455 0.99 9 2 C9 3.32 9 4.64 9 6 C6.36 6.66 3.72 7.32 1 8 C0.67 5.36 0.34 2.72 0 0 Z " fill="#E79195" transform="translate(45,51)"/>
<path d="M0 0 C0.66 0 1.32 0 2 0 C3.01800518 2.32686898 4.01507263 4.65914123 5 7 C5.29777344 7.68320312 5.59554687 8.36640625 5.90234375 9.0703125 C7.55884328 13.08560629 8.47843471 15.69909902 7 20 C6.34 19.67 5.68 19.34 5 19 C4.49107602 17.16787369 3.99563059 15.3307746 3.57421875 13.4765625 C2.91395988 10.62891542 2.15058669 7.81832911 1.375 5 C1.11460938 4.05125 0.85421875 3.1025 0.5859375 2.125 C0.39257812 1.42375 0.19921875 0.7225 0 0 Z " fill="#2D1E2D" transform="translate(37,48)"/>
<path d="M0 0 C1.65 0.33 3.3 0.66 5 1 C5.33 2.32 5.66 3.64 6 5 C4.68 5 3.36 5 2 5 C2 5.66 2 6.32 2 7 C4.475 7.99 4.475 7.99 7 9 C7 9.66 7 10.32 7 11 C5.68 10.67 4.36 10.34 3 10 C3 9.34 3 8.68 3 8 C2.34 8 1.68 8 1 8 C1 7.01 1 6.02 1 5 C0.01 4.67 -0.98 4.34 -2 4 C-1.34 4 -0.68 4 0 4 C0 2.68 0 1.36 0 0 Z " fill="#CA7C7F" transform="translate(71,88)"/>
<path d="M0 0 C0.66 0 1.32 0 2 0 C1.67 1.32 1.34 2.64 1 4 C0.34 4 -0.32 4 -1 4 C-1 5.32 -1 6.64 -1 8 C-0.360625 8.28875 0.27875 8.5775 0.9375 8.875 C3 10 3 10 4 12 C1.625 11.6875 1.625 11.6875 -1 11 C-3 8 -3 8 -3 4 C-4.65 4 -6.3 4 -8 4 C-8 3.67 -8 3.34 -8 3 C-6.865625 2.690625 -5.73125 2.38125 -4.5625 2.0625 C-1.21224901 1.37075469 -1.21224901 1.37075469 0 0 Z " fill="#81464B" transform="translate(71,105)"/>
<path d="M0 0 C1 3 1 3 0.22265625 5.04296875 C-0.16019531 5.75066406 -0.54304688 6.45835938 -0.9375 7.1875 C-1.31777344 7.90292969 -1.69804688 8.61835937 -2.08984375 9.35546875 C-2.39019531 9.89816406 -2.69054687 10.44085938 -3 11 C-5.31 10.34 -7.62 9.68 -10 9 C-8.50529266 6.01058532 -5.92442937 5.46221468 -3 4 C-2.67 3.34 -2.34 2.68 -2 2 C-1.34 2 -0.68 2 0 2 C0 1.34 0 0.68 0 0 Z " fill="#B47474" transform="translate(72,65)"/>
<path d="M0 0 C9.41002278 -0.18451025 9.41002278 -0.18451025 14 1 C14 1.33 14 1.66 14 2 C12.865625 2.309375 11.73125 2.61875 10.5625 2.9375 C7.21224901 3.62924531 7.21224901 3.62924531 6 5 C5.63239269 7.32817964 5.29758419 9.6618385 5 12 C4.67 12 4.34 12 4 12 C3.83723958 9.98177083 3.67447917 7.96354167 3.51171875 5.9453125 C3.12606964 3.60480784 3.12606964 3.60480784 0 2 C0 1.34 0 0.68 0 0 Z " fill="#965559" transform="translate(50,65)"/>
<path d="M0 0 C0.33 0.66 0.66 1.32 1 2 C0.67 2.99 0.34 3.98 0 5 C-0.66 5 -1.32 5 -2 5 C-1.67 6.32 -1.34 7.64 -1 9 C-4.63 9 -8.26 9 -12 9 C-9.49801738 6.85544347 -7.39270173 5.15525417 -4.3125 3.9375 C-1.67379032 3.1202663 -1.67379032 3.1202663 0 0 Z " fill="#AD6669" transform="translate(58,53)"/>
<path d="M0 0 C2.37316044 3.55974067 1.91542827 4.90258613 1.109375 8.95117188 C0.94953125 9.68916016 0.7896875 10.42714844 0.625 11.1875 C0.47289063 11.93708984 0.32078125 12.68667969 0.1640625 13.45898438 C-0.21286508 15.30828533 -0.60498603 17.15447775 -1 19 C-1.33 19 -1.66 19 -2 19 C-2.33 13.39 -2.66 7.78 -3 2 C-2.34 2.66 -1.68 3.32 -1 4 C-0.67 2.68 -0.34 1.36 0 0 Z " fill="#714B53" transform="translate(83,37)"/>
<path d="M0 0 C0.66 0 1.32 0 2 0 C2 0.99 2 1.98 2 3 C2.928125 3 3.85625 3 4.8125 3 C6.875 3 8.9375 3 11 3 C11 3.66 11 4.32 11 5 C8.36 5 5.72 5 3 5 C3.33 6.65 3.66 8.3 4 10 C2 8.375 2 8.375 0 6 C-0.25 2.75 -0.25 2.75 0 0 Z " fill="#B46C6F" transform="translate(62,45)"/>
<path d="M0 0 C0.33 0.99 0.66 1.98 1 3 C1.99 3.33 2.98 3.66 4 4 C3.71125 4.7425 3.4225 5.485 3.125 6.25 C1.57352403 11.42158657 0.8108526 16.66907548 0 22 C-0.33 22 -0.66 22 -1 22 C-0.85890014 19.89551062 -0.71195825 17.7914123 -0.5625 15.6875 C-0.48128906 14.51574219 -0.40007812 13.34398438 -0.31640625 12.13671875 C0 9 0 9 1 6 C0.01 5.67 -0.98 5.34 -2 5 C-2 4.34 -2 3.68 -2 3 C-1.34 3 -0.68 3 0 3 C0 2.01 0 1.02 0 0 Z " fill="#5F3842" transform="translate(78,91)"/>
<path d="M0 0 C2.64 0 5.28 0 8 0 C8 0.66 8 1.32 8 2 C4.52104598 4.35341007 0.76947676 6.15909274 -3 8 C-1.25 3.125 -1.25 3.125 1 2 C0.67 1.34 0.34 0.68 0 0 Z " fill="#523945" transform="translate(57,9)"/>
<path d="M0 0 C0.33 0.99 0.66 1.98 1 3 C2.65 3.33 4.3 3.66 6 4 C6 5.32 6 6.64 6 8 C3.03 7.505 3.03 7.505 0 7 C-0.12375 6.195625 -0.2475 5.39125 -0.375 4.5625 C-0.684375 3.2940625 -0.684375 3.2940625 -1 2 C-1.66 1.67 -2.32 1.34 -3 1 C-2.01 0.67 -1.02 0.34 0 0 Z " fill="#D98488" transform="translate(69,78)"/>
<path d="M0 0 C2.97 1.98 2.97 1.98 6 4 C5.67 5.32 5.34 6.64 5 8 C2.69 8 0.38 8 -2 8 C-1.34 5.36 -0.68 2.72 0 0 Z " fill="#B76D70" transform="translate(55,73)"/>
<path d="M0 0 C2.97 0.495 2.97 0.495 6 1 C5 3.5 5 3.5 3 6 C0.20625708 6.46837899 -2.14221036 6.23424505 -5 6 C-5 5.34 -5 4.68 -5 4 C-4.01 4 -3.02 4 -2 4 C-1.34 2.68 -0.68 1.36 0 0 Z " fill="#743B42" transform="translate(74,58)"/>
<path d="M0 0 C2.64 0 5.28 0 8 0 C7.38125 0.268125 6.7625 0.53625 6.125 0.8125 C3.7004767 1.95556848 3.7004767 1.95556848 2 5 C4.64 5 7.28 5 10 5 C10 5.66 10 6.32 10 7 C8.906875 6.979375 7.81375 6.95875 6.6875 6.9375 C3.05615809 6.81455548 3.05615809 6.81455548 0 8 C-0.98120464 4.94736336 -0.98120464 3.05263664 0 0 Z " fill="#CC7C7F" transform="translate(65,50)"/>
<path d="M0 0 C0.1875 3.375 0.1875 3.375 0 7 C-0.99 7.66 -1.98 8.32 -3 9 C-3.72965366 11.56282742 -3.72965366 11.56282742 -4 14 C-6 11 -6 11 -5.625 8.3125 C-5.41875 7.549375 -5.2125 6.78625 -5 6 C-4.34 6 -3.68 6 -3 6 C-3.33 4.68 -3.66 3.36 -4 2 C-1 0 -1 0 0 0 Z " fill="#1D1727" transform="translate(40,39)"/>
<path d="M0 0 C0.66 0.33 1.32 0.66 2 1 C1.5155542 1.40323486 1.0311084 1.80646973 0.53198242 2.22192383 C-1.36917165 4.42847445 -1.4151116 5.57032554 -1.51171875 8.44921875 C-1.56489258 9.72055664 -1.56489258 9.72055664 -1.61914062 11.01757812 C-1.64169922 11.89865234 -1.66425781 12.77972656 -1.6875 13.6875 C-1.72166016 14.58017578 -1.75582031 15.47285156 -1.79101562 16.39257812 C-1.87345648 18.59492671 -1.94261551 20.79687938 -2 23 C-3.5 21.625 -3.5 21.625 -5 20 C-5 19.34 -5 18.68 -5 18 C-4.34 18 -3.68 18 -3 18 C-3.03480469 16.95199219 -3.06960937 15.90398438 -3.10546875 14.82421875 C-3.13360937 13.44532853 -3.16090924 12.06642098 -3.1875 10.6875 C-3.21263672 9.99720703 -3.23777344 9.30691406 -3.26367188 8.59570312 C-3.33834499 3.44325817 -3.33834499 3.44325817 -1.48828125 1.01953125 C-0.99714844 0.68308594 -0.50601563 0.34664062 0 0 Z " fill="#643C44" transform="translate(43,28)"/>
<path d="M0 0 C0.33 0.99 0.66 1.98 1 3 C0.525625 3.391875 0.05125 3.78375 -0.4375 4.1875 C-2.2159381 5.9246934 -2.2159381 5.9246934 -2.375 8.5 C-3 11 -3 11 -5.5625 12.8125 C-6.366875 13.204375 -7.17125 13.59625 -8 14 C-6.32652499 8.46465957 -4.33970765 3.92640216 0 0 Z " fill="#8D7F89" transform="translate(43,8)"/>
<path d="M0 0 C2.125 0.9375 2.125 0.9375 4 2 C4 2.66 4 3.32 4 4 C1.5 5.625 1.5 5.625 -1 7 C-1.99 6.34 -2.98 5.68 -4 5 C-2.25 1.125 -2.25 1.125 0 0 Z " fill="#25223F" transform="translate(119,106)"/>
<path d="M0 0 C1.32 0 2.64 0 4 0 C4 2.97 4 5.94 4 9 C3.34 9 2.68 9 2 9 C-0.29013653 5.5647952 -0.17842973 4.014669 0 0 Z " fill="#F19FA1" transform="translate(59,51)"/>
<path d="M0 0 C0.66 0.33 1.32 0.66 2 1 C2 1.66 2 2.32 2 3 C-1.63 3 -5.26 3 -9 3 C-9 3.66 -9 4.32 -9 5 C-9.66 5 -10.32 5 -11 5 C-11.33 5.99 -11.66 6.98 -12 8 C-13.24546405 5.50907189 -12.7767578 4.58919267 -12 2 C-10.37585622 1.80522261 -8.75063577 1.61940542 -7.125 1.4375 C-6.22007813 1.33308594 -5.31515625 1.22867188 -4.3828125 1.12109375 C-2 1 -2 1 0 2 C0 1.34 0 0.68 0 0 Z " fill="#24223F" transform="translate(21,100)"/>
<path d="M0 0 C0.66 0 1.32 0 2 0 C2.05399736 1.45792884 2.09279177 2.91642712 2.125 4.375 C2.14820312 5.18710938 2.17140625 5.99921875 2.1953125 6.8359375 C2 9 2 9 0 11 C-1.32 10.01 -2.64 9.02 -4 8 C-2.68 7.67 -1.36 7.34 0 7 C0 4.69 0 2.38 0 0 Z " fill="#B97E7D" transform="translate(75,102)"/>
<path d="M0 0 C0 0.99 0 1.98 0 3 C-1.32 3 -2.64 3 -4 3 C-4 3.66 -4 4.32 -4 5 C-5.65 5 -7.3 5 -9 5 C-8 2 -8 2 -6.1875 0.8125 C-4 0 -4 0 0 0 Z " fill="#C38886" transform="translate(73,100)"/>
<path d="M0 0 C0.5775 0.165 1.155 0.33 1.75 0.5 C4.26664369 1.14462031 4.26664369 1.14462031 8 1 C8 1.99 8 2.98 8 4 C5.36 4.66 2.72 5.32 0 6 C0 4.02 0 2.04 0 0 Z " fill="#E29294" transform="translate(61,75)"/>
<path d="M0 0 C2.375 0.25 2.375 0.25 5 1 C7.66181082 4.2955753 7.15640774 7.93339881 7 12 C6.67 12 6.34 12 6 12 C5.773125 10.906875 5.54625 9.81375 5.3125 8.6875 C4.34252805 4.87511789 4.34252805 4.87511789 1.375 3.0625 C0.59125 2.711875 -0.1925 2.36125 -1 2 C-0.67 1.34 -0.34 0.68 0 0 Z " fill="#AC6E6F" transform="translate(73,32)"/>
<path d="M0 0 C-1.65 1.65 -3.3 3.3 -5 5 C-5.99 4.67 -6.98 4.34 -8 4 C-8 3.34 -8 2.68 -8 2 C-8.66 1.67 -9.32 1.34 -10 1 C-3.375 -1.125 -3.375 -1.125 0 0 Z " fill="#BD7073" transform="translate(67,67)"/>
<path d="M0 0 C1.2065625 0.0309375 1.2065625 0.0309375 2.4375 0.0625 C1.87378586 3.33204202 0.93787734 4.88825883 -1.5625 7.0625 C-1.5625 6.0725 -1.5625 5.0825 -1.5625 4.0625 C-2.2225 4.0625 -2.8825 4.0625 -3.5625 4.0625 C-3.8925 4.7225 -4.2225 5.3825 -4.5625 6.0625 C-3.48963568 0.08511307 -3.48963568 0.08511307 0 0 Z " fill="#955A5D" transform="translate(73.5625,62.9375)"/>
<path d="M0 0 C6.625 -0.25 6.625 -0.25 10 2 C6.77208445 4.1519437 5.71599191 4.20086443 2 4 C2 3.01 2 2.02 2 1 C1.34 0.67 0.68 0.34 0 0 Z " fill="#B3676B" transform="translate(66,56)"/>
<path d="M0 0 C1.65 0 3.3 0 5 0 C4.278125 0.556875 3.55625 1.11375 2.8125 1.6875 C0.02542701 3.97909334 -2.48641528 6.41459857 -5 9 C-5.66 8.67 -6.32 8.34 -7 8 C-6.67 7.34 -6.34 6.68 -6 6 C-5.34 6 -4.68 6 -4 6 C-3.34 4.68 -2.68 3.36 -2 2 C-1.34 2 -0.68 2 0 2 C0 1.34 0 0.68 0 0 Z " fill="#151323" transform="translate(50,115)"/>
<path d="M0 0 C-0.61277612 2.96175123 -1.25372522 4.38058783 -3 7 C-3.99 7 -4.98 7 -6 7 C-6.33 6.01 -6.66 5.02 -7 4 C-2.25 0 -2.25 0 0 0 Z " fill="#A86466" transform="translate(67,81)"/>
<path d="M0 0 C2 1 2 1 5 3 C5.66 2.67 6.32 2.34 7 2 C6.67 3.65 6.34 5.3 6 7 C4 6 2 5 0 4 C0 2.68 0 1.36 0 0 Z " fill="#9C6163" transform="translate(70,109)"/>
<path d="M0 0 C0.45375 0.495 0.9075 0.99 1.375 1.5 C2.87635519 3.22609337 2.87635519 3.22609337 5 3 C5 4.32 5 5.64 5 7 C5.99 7.33 6.98 7.66 8 8 C6.68 8 5.36 8 4 8 C4 7.34 4 6.68 4 6 C2.68 6 1.36 6 0 6 C0 4.02 0 2.04 0 0 Z " fill="#BA807F" transform="translate(53,87)"/>
<path d="M0 0 C3.4375 0.875 3.4375 0.875 4.875 2.9375 C5.1534375 3.8965625 5.1534375 3.8965625 5.4375 4.875 C4.756875 4.565625 4.07625 4.25625 3.375 3.9375 C0.06784088 2.74129351 -3.07795878 2.28494603 -6.5625 1.875 C-3.5625 -0.125 -3.5625 -0.125 0 0 Z " fill="#804347" transform="translate(50.5625,44.125)"/>
<path d="M0 0 C2.64 0.33 5.28 0.66 8 1 C8 1.66 8 2.32 8 3 C8.66 3.33 9.32 3.66 10 4 C7.36 4 4.72 4 2 4 C2 3.01 2 2.02 2 1 C1.34 0.67 0.68 0.34 0 0 Z " fill="#110E1A" transform="translate(90,124)"/>
<path d="M0 0 C0.66 0 1.32 0 2 0 C2 3.63 2 7.26 2 11 C1.34 11 0.68 11 0 11 C-0.19491452 9.54263913 -0.38069358 8.08405407 -0.5625 6.625 C-0.66691406 5.81289062 -0.77132813 5.00078125 -0.87890625 4.1640625 C-1 2 -1 2 0 0 Z " fill="#453F53" transform="translate(7,112)"/>
<path d="M0 0 C2.475 0.99 2.475 0.99 5 2 C4.67 2.99 4.34 3.98 4 5 C2.35 5 0.7 5 -1 5 C-0.67 3.35 -0.34 1.7 0 0 Z " fill="#E29E9D" transform="translate(54,80)"/>
<path d="M0 0 C0.99 0 1.98 0 3 0 C3.66 1.65 4.32 3.3 5 5 C4.01 5.33 3.02 5.66 2 6 C1.01 5.34 0.02 4.68 -1 4 C-0.67 2.68 -0.34 1.36 0 0 Z " fill="#E68E91" transform="translate(56,69)"/>
<path d="M0 0 C2 3 2 3 1.7578125 5.48046875 C1.54898438 6.37378906 1.34015625 7.26710938 1.125 8.1875 C0.92132813 9.08855469 0.71765625 9.98960938 0.5078125 10.91796875 C0.25644531 11.94857422 0.25644531 11.94857422 0 13 C-0.33 13 -0.66 13 -1 13 C-2.0070238 7.96488101 -1.97387813 4.76052962 0 0 Z " fill="#221C30" transform="translate(84,42)"/>
<path d="M0 0 C1.32 0.33 2.64 0.66 4 1 C4 1.99 4 2.98 4 4 C5.32 4.33 6.64 4.66 8 5 C7.67 6.32 7.34 7.64 7 9 C4.03595495 6.19195732 1.55500981 3.81684226 0 0 Z " fill="#895156" transform="translate(55,99)"/>
<path d="M0 0 C-1 3 -1 3 -2.8125 4.25 C-5.33943414 5.11637742 -6.52221994 4.88492145 -9 4 C-8 2 -8 2 -5.0625 0.875 C-2 0 -2 0 0 0 Z " fill="#A46063" transform="translate(74,96)"/>
<path d="M0 0 C2.31 0.33 4.62 0.66 7 1 C7 1.66 7 2.32 7 3 C7.66 3.33 8.32 3.66 9 4 C8.01 4 7.02 4 6 4 C5.67 4.66 5.34 5.32 5 6 C3.35 4.02 1.7 2.04 0 0 Z " fill="#704148" transform="translate(44,61)"/>
<path d="M0 0 C1.98 0.66 3.96 1.32 6 2 C5.67 2.66 5.34 3.32 5 4 C4.34 4 3.68 4 3 4 C2.67 4.99 2.34 5.98 2 7 C1.34 7 0.68 7 0 7 C0 4.69 0 2.38 0 0 Z " fill="#533F4B" transform="translate(31,27)"/>
<path d="M0 0 C6.52307692 0.61538462 6.52307692 0.61538462 8.9375 2.5625 C9.288125 3.036875 9.63875 3.51125 10 4 C7.36 4 4.72 4 2 4 C1.34 2.68 0.68 1.36 0 0 Z " fill="#877883" transform="translate(63,6)"/>
<path d="M0 0 C0.99 0.33 1.98 0.66 3 1 C3 1.66 3 2.32 3 3 C3.639375 3.2475 4.27875 3.495 4.9375 3.75 C7 5 7 5 7.75 7.125 C7.8325 7.74375 7.915 8.3625 8 9 C7.38125 8.2884375 7.38125 8.2884375 6.75 7.5625 C4.817815 5.83733482 3.51807725 5.43415125 1 5 C0.67 3.35 0.34 1.7 0 0 Z " fill="#3C2430" transform="translate(69,76)"/>
<path d="M0 0 C0.99 0.33 1.98 0.66 3 1 C3 3.31 3 5.62 3 8 C2.01 8.495 2.01 8.495 1 9 C0.01 8.01 -0.98 7.02 -2 6 C-0.68 5.67 0.64 5.34 2 5 C1.34 3.35 0.68 1.7 0 0 Z " fill="#B67374" transform="translate(56,45)"/>
<path d="M0 0 C0.33 0.99 0.66 1.98 1 3 C2.65 3.33 4.3 3.66 6 4 C5.67 4.66 5.34 5.32 5 6 C2.03 5.01 -0.94 4.02 -4 3 C-2.68 2.01 -1.36 1.02 0 0 Z " fill="#57343E" transform="translate(64,27)"/>
<path d="M0 0 C0.33 0 0.66 0 1 0 C1.33 2.31 1.66 4.62 2 7 C1.34 7 0.68 7 0 7 C0 8.32 0 9.64 0 11 C-0.66 11 -1.32 11 -2 11 C-2 9.02 -2 7.04 -2 5 C-1.34 5 -0.68 5 0 5 C0 3.35 0 1.7 0 0 Z " fill="#4F4C68" transform="translate(9,95)"/>
<path d="M0 0 C0.33 0.66 0.66 1.32 1 2 C0.34 2 -0.32 2 -1 2 C-1 2.66 -1 3.32 -1 4 C0.32 3.67 1.64 3.34 3 3 C2.67 3.99 2.34 4.98 2 6 C-0.31 5.34 -2.62 4.68 -5 4 C-3.74458443 1.48916886 -2.49936512 1.12874554 0 0 Z " fill="#A36567" transform="translate(67,70)"/>
<path d="M0 0 C2.31 0.66 4.62 1.32 7 2 C7 2.66 7 3.32 7 4 C4.36 3.67 1.72 3.34 -1 3 C-0.67 2.01 -0.34 1.02 0 0 Z " fill="#9E5D5F" transform="translate(70,43)"/>
<path d="M0 0 C0.99 0.33 1.98 0.66 3 1 C3 1.99 3 2.98 3 4 C1.68 4 0.36 4 -1 4 C-1 4.66 -1 5.32 -1 6 C-1.66 6 -2.32 6 -3 6 C-3 4.68 -3 3.36 -3 2 C-2.34 2 -1.68 2 -1 2 C-0.67 1.34 -0.34 0.68 0 0 Z " fill="#4F4A67" transform="translate(10,105)"/>
<path d="M0 0 C0.66 0 1.32 0 2 0 C2 0.99 2 1.98 2 3 C-1 5 -1 5 -3.6875 4.625 C-4.450625 4.41875 -5.21375 4.2125 -6 4 C-5.38125 3.71125 -4.7625 3.4225 -4.125 3.125 C-1.86674235 2.06279958 -1.86674235 2.06279958 0 0 Z " fill="#6E2E35" transform="translate(66,61)"/>
<path d="M0 0 C0 0.99 0 1.98 0 3 C-2.31 3 -4.62 3 -7 3 C-7.33 2.34 -7.66 1.68 -8 1 C-2.25 -1.125 -2.25 -1.125 0 0 Z " fill="#F6A7A8" transform="translate(58,40)"/>
<path d="M0 0 C0.99 0.33 1.98 0.66 3 1 C3 1.99 3 2.98 3 4 C1.35 4.66 -0.3 5.32 -2 6 C-1.125 1.125 -1.125 1.125 0 0 Z " fill="#57414D" transform="translate(40,18)"/>
<path d="M0 0 C1.74627478 2.61941217 2.38722388 4.03824877 3 7 C1.68 6.67 0.36 6.34 -1 6 C-1.042721 4.33388095 -1.04063832 2.66617115 -1 1 C-0.67 0.67 -0.34 0.34 0 0 Z " fill="#333054" transform="translate(11,95)"/>
<path d="M0 0 C0 0.66 0 1.32 0 2 C-3.465 3.485 -3.465 3.485 -7 5 C-7 4.01 -7 3.02 -7 2 C-2.25 0 -2.25 0 0 0 Z " fill="#777186" transform="translate(28,45)"/>
<path d="M0 0 C-1.1875 1.5 -1.1875 1.5 -3 3 C-5.6875 3.1875 -5.6875 3.1875 -8 3 C-7.34 2.67 -6.68 2.34 -6 2 C-6 1.34 -6 0.68 -6 0 C-3 -1 -3 -1 0 0 Z " fill="#141120" transform="translate(42,125)"/>
<path d="M0 0 C-2.31 1.32 -4.62 2.64 -7 4 C-7.66 3.34 -8.32 2.68 -9 2 C-8.34 2 -7.68 2 -7 2 C-7 1.34 -7 0.68 -7 0 C-3.98968256 -0.93423645 -3.13349732 -1.04449911 0 0 Z " fill="#1C1A2F" transform="translate(16,109)"/>
<path d="M0 0 C0.99 0.33 1.98 0.66 3 1 C2.01 1.66 1.02 2.32 0 3 C0 2.01 0 1.02 0 0 Z M-4 2 C-2.02 2.495 -2.02 2.495 0 3 C-0.33 3.66 -0.66 4.32 -1 5 C-2.32 4.67 -3.64 4.34 -5 4 C-4.67 3.34 -4.34 2.68 -4 2 Z " fill="#221F3B" transform="translate(109,91)"/>
<path d="M0 0 C2.0625 1.6875 2.0625 1.6875 4 4 C3.75 6.75 3.75 6.75 3 9 C2.34 8.67 1.68 8.34 1 8 C0.40644386 5.35139573 0.25790731 2.70802678 0 0 Z " fill="#1E192E" transform="translate(41,59)"/>
<path d="M0 0 C1.98 0.99 1.98 0.99 4 2 C3.01 2.495 3.01 2.495 2 3 C2 3.99 2 4.98 2 6 C2.66 6.33 3.32 6.66 4 7 C3.01 7.33 2.02 7.66 1 8 C0.67 5.36 0.34 2.72 0 0 Z " fill="#D98E8F" transform="translate(45,51)"/>
</svg>
